<svg width="34" height="34" viewBox="0 0 34 34" fill="none" xmlns="http://www.w3.org/2000/svg">
<path d="M33.8625 26.1383L31.9087 20.4523C32.8505 18.5271 33.3482 16.386 33.3515 14.2317C33.3573 10.4858 31.908 6.94403 29.2706 4.2588C26.6327 1.57303 23.1175 0.0611668 19.3725 0.00183794C15.4892 -0.0595277 11.8391 1.41758 9.09489 4.16169C6.44881 6.8077 4.98116 10.296 4.93471 14.0237C2.32674 15.9872 0.787406 19.0486 0.792465 22.3185C0.794896 23.8487 1.13931 25.3698 1.79192 26.7453L0.44615 30.6616C0.214814 31.3349 0.383799 32.0659 0.887207 32.5693C1.24147 32.9236 1.70855 33.1123 2.18889 33.1123C2.39099 33.1123 2.59546 33.0789 2.79486 33.0103L6.71129 31.6646C8.08676 32.3172 9.60782 32.6616 11.138 32.664C11.1435 32.664 11.1488 32.664 11.1543 32.664C14.4729 32.6639 17.5576 31.0849 19.514 28.413C21.5499 28.3594 23.5643 27.8665 25.3853 26.9757L31.0715 28.9295C31.3084 29.0109 31.5513 29.0506 31.7915 29.0506C32.3623 29.0506 32.9174 28.8265 33.3384 28.4053C33.9366 27.8071 34.1374 26.9384 33.8625 26.1383ZM11.1542 30.6617C11.1499 30.6617 11.1454 30.6617 11.1411 30.6617C9.78673 30.6597 8.44175 30.3258 7.25182 29.6962C7.00714 29.5668 6.71989 29.5444 6.45827 29.6343L2.44237 31.0143L3.82231 26.9984C3.91219 26.7367 3.88985 26.4495 3.76042 26.2049C3.13086 25.0149 2.79696 23.67 2.79486 22.3155C2.79151 20.1369 3.639 18.072 5.12104 16.5257C5.60513 19.4768 7.01161 22.1962 9.19173 24.3376C11.3558 26.4631 14.0759 27.8164 17.011 28.2589C15.4612 29.7864 13.3721 30.6617 11.1542 30.6617ZM31.9224 26.9894C31.8655 27.0464 31.7979 27.0619 31.722 27.0357L25.6348 24.9441C25.5291 24.9077 25.4191 24.8897 25.3095 24.8897C25.148 24.8897 24.987 24.9288 24.8413 25.006C23.1033 25.9254 21.1394 26.413 19.1616 26.416C19.1551 26.416 19.1492 26.416 19.1427 26.416C12.5158 26.416 7.04197 21.0328 6.93697 14.4075C6.88408 11.0708 8.15331 7.93495 10.5108 5.5775C12.8682 3.22005 16.0046 1.95128 19.3408 2.00384C25.9725 2.10903 31.3594 7.59297 31.3492 14.2285C31.3461 16.2063 30.8585 18.1703 29.9391 19.9082C29.8097 20.1528 29.7874 20.4401 29.8773 20.7018L31.9689 26.7889C31.995 26.8651 31.9793 26.9326 31.9224 26.9894Z" fill="white"/>
</svg>
