<?xml version="1.0" encoding="utf-8"?>
<!-- Generator: Adobe Illustrator 21.1.0, SVG Export Plug-In . SVG Version: 6.00 Build 0)  -->
<svg version="1.1" baseProfile="tiny" id="Capa_1" xmlns="http://www.w3.org/2000/svg" xmlns:xlink="http://www.w3.org/1999/xlink"
	 x="0px" y="0px" viewBox="0 0 100 100" xml:space="preserve">
<title>Mesa de trabajo 1</title>
<g id="_x30_HtW9V.tif">
</g>
<g>
	<path fill="#0DB14B" d="M50,10c-22.1,0-40,17.9-40,40s17.9,40,40,40s40-17.9,40-40S72.1,10,50,10z M50,86.9
		c-20.4,0-36.9-16.6-36.9-36.9S29.6,13.1,50,13.1S86.9,29.6,86.9,50S70.4,86.9,50,86.9z"/>
	<path fill="#0DB14B" d="M68.8,33.6L45.2,60.2L31,48.8c-0.7-0.5-1.6-0.4-2.2,0.2c-0.5,0.7-0.4,1.6,0.2,2.2l15.4,12.3
		c0.3,0.2,0.6,0.3,1,0.3s0.8-0.2,1.2-0.5l24.6-27.7c0.6-0.6,0.5-1.6-0.1-2.2C70.4,32.9,69.4,33,68.8,33.6z"/>
</g>
</svg>
