<svg fill="none" height="12" viewBox="0 0 6 12" width="6" xmlns="http://www.w3.org/2000/svg"><path d="m5.1094 6-4.656275-4.65625c-.083333-.07291-.125-.16146-.125-.26562 0-.114589.041667-.213542.125-.296875.072914-.07292.16146-.10938.26562-.10938.114587 0 .208333.03646.281253.10938l4.750002 4.750015c.1354.125.20313.28126.20313.46873s-.06773.34373-.20313.46873l-4.73437 4.73437c-.072925.0834-.166672.125-.281259.125-.104166 0-.197912-.0312-.281246-.0937-.083333-.0833-.125-.1771-.125-.2813 0-.1146.041667-.2135.125-.2968z" fill="#56504c"/></svg>