<svg fill="none" height="40" viewBox="0 0 40 40" width="40" xmlns="http://www.w3.org/2000/svg"><path d="m33.3193 20 3.0079-4.6875c.4166-.7031.4686-1.4193.1561-2.1484-.3125-.7292-.8463-1.198-1.6015-1.4063l-5.2343-1.4062-1.4063-5.23442c-.1562-.54687-.4557-.97655-.8985-1.28905-.4427-.33855-.9244-.50782-1.4452-.50782-.2083 0-.4167.02604-.625.07812-.1823.05208-.3777.14323-.586.27343l-4.6875 2.69532-4.6875-2.69532c-.2083-.1302-.4167-.22135-.625-.27343-.1823-.05208-.3776-.07812-.5859-.07812-.5209 0-1.0026.16927-1.4454.50782-.4427.3125-.7421.74218-.8984 1.28905l-1.4062 5.23442-5.23443 1.4062c-.7552.2083-1.28905.6771-1.60155 1.4063-.28647.7291-.23438 1.4453.15623 2.1484l3.00782 4.6875-3.00782 4.6875c-.41666.7032-.46873 1.4193-.15623 2.1485s.84635 1.1978 1.60155 1.4062l5.23443 1.4063 1.4062 5.2343c.1563.5469.4557.9765.8984 1.289.4428.3385.9245.5079 1.4454.5079.2083 0 .4036-.026.5859-.0782.2083-.052.4167-.1432.625-.2733l4.6875-2.6954 4.6875 2.6954c.2083.1301.4037.2213.586.2733.2083.0522.4167.0782.625.0782.5208 0 1.0025-.1694 1.4452-.5079.4428-.3125.7423-.7421.8985-1.289l1.4063-5.2343 5.2343-1.4063c.7552-.2084 1.276-.677 1.5625-1.4062.3125-.7292.2734-1.4453-.1171-2.1485zm1.6407 6.1718c-.0522.0782-.1173.1694-.1953.2735-.0522.0782-.1564.1302-.3125.1562l-5.2345 1.4453c-.2864.0782-.5339.2214-.7422.4297s-.3515.4558-.4297.7422l-1.4453 5.2345c-.052.1821-.1562.3255-.3125.4296-.1302.0782-.2603.1172-.3905.1172-.0782 0-.1433 0-.1953 0-.0522-.026-.1042-.0652-.1564-.1172l-4.7265-2.6953c-.1301-.0522-.2605-.0912-.3906-.1172-.1302-.0521-.2734-.0781-.4297-.0781s-.2995.026-.4297.0781c-.1301.026-.2605.065-.3906.1172l-4.7266 2.6953c-.0521.052-.1172.0912-.1953.1172-.0521 0-.1042 0-.1562 0-.1303 0-.2735-.039-.4297-.1172-.1302-.1041-.2214-.2475-.2735-.4296l-1.4453-5.2345c-.0781-.2864-.2213-.5339-.4297-.7422-.2083-.2083-.4557-.3515-.7422-.4297l-5.23435-1.4453c-.15623-.026-.27343-.078-.35155-.1562-.05208-.1041-.10416-.1953-.15625-.2735 0-.052-.01303-.1301-.03906-.2343 0-.1302.02603-.2605.07813-.3907l3.0078-4.6483c.15625-.2865.23438-.586.23438-.8985 0-.3385-.07813-.638-.23438-.8985l-3.0078-4.6484c-.0521-.1302-.07813-.2474-.07813-.3515.02603-.1303.03906-.2344.03906-.3125.05209-.0521.10417-.1172.15625-.1954.07812-.1041.19532-.1822.35155-.2343l5.23435-1.4063c.2865-.0781.5339-.2213.7422-.4297.2084-.2083.3516-.4557.4297-.7422l1.4453-5.23434c.0521-.18228.1433-.3125.2735-.39061.1562-.10417.2994-.15625.4297-.15625.0781 0 .1432.01301.1953.03906.0521 0 .1041.01302.1562.03907l4.7266 2.73437c.1301.05208.2605.10416.3906.15625.1302.02603.2734.03906.4297.03906s.2995-.01303.4297-.03906c.1301-.05209.2605-.10417.3906-.15625l4.7265-2.73437c.0522-.02605.1042-.03907.1564-.03907.0781-.02605.1431-.03906.1953-.03906.1302 0 .2603.05208.3905.15625.1563.07811.2605.20833.3125.39061l1.4453 5.23434c.0782.2865.2214.5339.4297.7422.2083.2084.4558.3516.7422.4297l5.2345 1.4063c.1561.0521.2603.1302.3125.2343.078.0782.1431.1433.1953.1954v.3125c.026.1041.013.2213-.0392.3515l-3.0078 4.6484c-.1562.2605-.2343.56-.2343.8985 0 .3125.0781.612.2343.8985l3.0078 4.6483c.0522.1302.0652.2605.0392.3907zm-16.6407-11.1327c0-.9115-.3255-1.6928-.9766-2.3438-.651-.651-1.4322-.9766-2.3437-.9766s-1.6927.3256-2.3438.9766c-.651.651-.9765 1.4323-.9765 2.3438 0 .9375.3255 1.7317.9765 2.3827.6511.6512 1.4323.9767 2.3438.9767s1.6927-.3255 2.3437-.9767c.6511-.651.9766-1.4452.9766-2.3827zm-5 0c0-.4428.1563-.8204.4688-1.1329.3385-.3385.7421-.5078 1.2109-.5078.4687 0 .8594.1693 1.1719.5078.3385.3125.5078.6901.5078 1.1329 0 .4687-.1693.8724-.5078 1.2109-.3125.3125-.7032.4687-1.1719.4687-.4688 0-.8724-.1562-1.2109-.4687-.3125-.3385-.4688-.7422-.4688-1.2109zm11.6797 6.6796c-.9115 0-1.6927.3256-2.3437.9766-.6511.651-.9766 1.4324-.9766 2.3437 0 .9375.3255 1.7318.9766 2.3828.651.6512 1.4322.9767 2.3437.9767s1.6927-.3255 2.3437-.9767c.6511-.651.9766-1.4453.9766-2.3828 0-.9113-.3255-1.6927-.9766-2.3437-.651-.651-1.4322-.9766-2.3437-.9766zm0 5c-.4687 0-.8723-.1562-1.211-.4687-.3125-.3385-.4687-.7422-.4687-1.211 0-.4427.1562-.8203.4687-1.1327.3387-.3386.7423-.5078 1.211-.5078s.8593.1692 1.1718.5078c.3385.3124.5079.69.5079 1.1327 0 .4688-.1694.8725-.5079 1.211-.3125.3125-.7031.4687-1.1718.4687zm1.5625-13.6328-11.7188 15.0001c-.1041.1042-.2213.1822-.3515.2343-.1042.052-.2084.0782-.3125.0782-.1042 0-.1953-.0132-.2735-.0392-.0781-.052-.1562-.1041-.2343-.1561-.1823-.1302-.2995-.3125-.3516-.5469-.026-.2345.0391-.4428.1953-.625l11.7187-15.0001c.1564-.1822.3387-.2864.547-.3125.2344-.026.4427.0391.625.1954.1822.1302.2864.3125.3124.5468.0261.2344-.026.4427-.1562.625z" fill="#ec7000"/></svg>