<svg fill="none" height="44" viewBox="0 0 44 44" width="44" xmlns="http://www.w3.org/2000/svg"><path d="m11 16.25c0 1.2604-.4583 2.349-1.375 3.2656-.88802.888-1.96224 1.3321-3.22266 1.3321-1.26041 0-2.33463-.4441-3.22265-1.3321-.88802-.9166-1.33203-2.0052-1.33203-3.2656s.44401-2.3346 1.33203-3.2227c.88802-.9166 1.96224-1.375 3.22265-1.375 1.26042 0 2.33464.4584 3.22266 1.375.9167.8881 1.375 1.9623 1.375 3.2227zm10.0977-4.5977c-1.2605 0-2.349.4584-3.2657 1.375-.888.8881-1.332 1.9623-1.332 3.2227s.444 2.349 1.332 3.2656c.9167.888 2.0052 1.3321 3.2657 1.3321 1.2604 0 2.3346-.4441 3.2226-1.3321.888-.9166 1.332-2.0052 1.332-3.2656s-.444-2.3346-1.332-3.2227c-.888-.9166-1.9622-1.375-3.2226-1.375zm14.6523 0c-1.2604 0-2.349.4584-3.2656 1.375-.888.8881-1.3321 1.9623-1.3321 3.2227s.4441 2.349 1.3321 3.2656c.9166.888 2.0052 1.3321 3.2656 1.3321s2.3346-.4441 3.2227-1.3321c.9166-.9166 1.375-2.0052 1.375-3.2656s-.4584-2.3346-1.375-3.2227c-.8881-.9166-1.9623-1.375-3.2227-1.375zm-29.34766 12.8477c-1.26041 0-2.33463.4583-3.22265 1.375-.88802.888-1.33203 1.9622-1.33203 3.2227 0 1.2604.44401 2.3346 1.33203 3.2226s1.96224 1.332 3.22265 1.332c1.26042 0 2.33464-.444 3.22266-1.332.9167-.888 1.375-1.9622 1.375-3.2226 0-1.2605-.4583-2.3347-1.375-3.2227-.88802-.9167-1.96224-1.375-3.22266-1.375zm14.69536 0c-1.2605 0-2.349.4583-3.2657 1.375-.888.888-1.332 1.9622-1.332 3.2227 0 1.2604.444 2.3346 1.332 3.2226.9167.888 2.0052 1.332 3.2657 1.332 1.2604 0 2.3346-.444 3.2226-1.332s1.332-1.9622 1.332-3.2226c0-1.2605-.444-2.3347-1.332-3.2227-.888-.9167-1.9622-1.375-3.2226-1.375zm18.3046 3.6523h-2.75v-2.75c0-.2291-.0859-.4296-.2578-.6015-.1718-.2005-.3867-.3008-.6445-.3008s-.4727.1003-.6445.3008c-.1719.1719-.2578.3724-.2578.6015v2.75h-2.75c-.2579 0-.487.1003-.6875.3008-.1719.1719-.2579.3867-.2579.6446 0 .2291.086.444.2579.6445.2005.1719.4296.2578.6875.2578h2.75v2.75c0 .2578.0859.4727.2578.6445.1718.1719.3867.2578.6445.2578s.4727-.0859.6445-.2578c.1719-.1718.2578-.3867.2578-.6445v-2.75h2.75c.2579 0 .4727-.0859.6446-.2578.2005-.2005.3008-.4154.3008-.6445 0-.2579-.1003-.4727-.3008-.6446-.1719-.2005-.3867-.3008-.6446-.3008z" fill="#ec7000"/></svg>