<svg fill="none" height="13" viewBox="0 0 8 13" width="8" xmlns="http://www.w3.org/2000/svg"><path d="m6.37305 6.49414-5.23828-5.23828c-.09375-.08203-.140629-.18164-.140629-.298829 0-.128906.046879-.234375.140629-.316406.08203-.09375.18164-.140625.29882-.140625.12891 0 .23438.046875.31641.140625l5.34375 5.326175c.15234.15234.22852.33398.22852.54492 0 .19922-.07618.375-.22852.52734l-5.32617 5.32614c-.08203.0821-.1875.1289-.31641.1407-.11719 0-.22265-.0411-.3164-.1231-.09375-.0937-.140629-.1992-.140629-.3164 0-.1289.046879-.2402.140629-.334z" fill="#56504c"/></svg>