<svg fill="none" viewBox="0 0 48 48" xmlns="http://www.w3.org/2000/svg"><g clip-rule="evenodd" fill-rule="evenodd"><path d="m8 0h32a8 8 0 0 1 8 8v32a8 8 0 0 1 -8 8h-32a8 8 0 0 1 -8-8v-32a8 8 0 0 1 8-8" fill="#039"/><path d="m3.97 39.97h3.71v-15.93h-3.7v15.93zm22.5-4.4a2.94 2.94 0 0 1 -.1.73l-.03.06a2.59 2.59 0 0 1 -2.38 1.52c-1.02 0-1.72-.54-1.72-1.53 0-1.13.95-1.7 2.39-1.93.33-.05.7-.08 1.1-.1l.72-.01v1.26zm-2.13-7.88c-2.27 0-3.97.6-4.9 1.13l.7 2.34c.85-.5 2.28-.95 3.59-.95 2.17 0 2.62 1.1 2.62 1.66v.12c-4.82-.01-7.8 1.55-7.8 4.64 0 1.81 1.45 3.65 4.1 3.65 1.6 0 2.93-.58 3.75-1.53h.04l.4 1.23h3.02v-7.06c0-2.88-1.41-5.23-5.52-5.23zm15.78.35v7c0 .28-.03.53-.13.76a2.4 2.4 0 0 1 -2.23 1.53c-1.52 0-2.18-1.11-2.18-2.98v-6.32h-3.62v6.98c0 .94.1 1.73.33 2.39s.54 1.2.93 1.62c.4.42.86.74 1.4.94.55.2 1.16.3 1.8.3a4.95 4.95 0 0 0 3.46-1.36c.21-.22.38-.43.5-.62l.47 1.7h2.93v-11.94zm-28.94-4v4h-1.7v2.72h1.7v4.86c0 1.6.33 2.8 1.01 3.54.6.64 1.65 1.1 2.93 1.1 1.1 0 1.51-.16 2-.35v-2.76c-.1.04-.39.1-.75.1-1.3 0-1.6-.8-1.6-2.27v-4.22h2.31v-2.73h-2.3v-3.99zm27.56 0-2.23 3.22h2.58l3.16-3.22h-3.5z" fill="#ff0"/></g></svg>