<svg fill="none" height="48" viewBox="0 0 48 48" width="48" xmlns="http://www.w3.org/2000/svg"><rect fill="#ec7000" height="48" rx="12" width="48"/><path d="m13.8241 8.5713h20.4833c2.8306 0 5.1213 2.2962 5.1213 5.1237v20.4857c0 2.8274-2.2907 5.1181-5.1213 5.1181h-20.4833c-2.8323 0-5.12293-2.2907-5.12293-5.1181v-20.4857c0-2.8275 2.29063-5.1237 5.12293-5.1237z" fill="#203f89"/><g fill="#f3e430"><path d="m11.2617 34.1777h2.3886v-10.245h-2.3886z"/><path d="m25.7182 31.3433c0 .1221-.0115.2609-.0393.3865-.0036.0159-.0194.0698-.0238.0809-.0051.0131-.0103.0262-.0162.0389-.2117.5007-.7723.972-1.5264.972-.6565 0-1.1096-.3405-1.1096-.9859 0-.7227.6169-1.095 1.5374-1.2369.2153-.0341.452-.0548.7057-.0643.153-.0051.31-.0071.4722-.0047zm-1.3642-5.0682c-1.4641 0-2.5571.381-3.1506.7259l.4488 1.5093c.5388-.3251 1.4664-.6177 2.3041-.6177 1.3975-.004 1.6929.7061 1.6929 1.0661v.0824c-3.0967-.0131-5.0096.9923-5.0096 2.9773 0 1.1684.9262 2.3478 2.6344 2.3478 1.0181 0 1.8772-.3691 2.3986-.9864h.0257l.2613.7977h1.9442v-4.5409c0-1.8459-.9067-3.3615-3.5498-3.3615z"/><path d="m34.5029 26.5013v4.5001c0 .1812-.0226.3426-.0804.488-.1911.4619-.6625.9852-1.438.9852-.9752 0-1.4026-.7168-1.4026-1.9156v-4.0624h-2.3319v4.4894c0 .601.0726 1.1116.2173 1.5326.1447.4211.3417.7699.5922 1.0423.251.2747.5523.4749.9024.601.3496.1261.737.1899 1.1592.1899.3675 0 .693-.0456.9768-.1352.2839-.0888.5289-.197.7347-.3239.2057-.1253.3782-.2624.5173-.4103.1388-.1471.2482-.2791.3259-.3953l.3001 1.0903h1.8919v-7.6761z"/><path d="m15.8914 23.9321v2.5638h-1.0887v1.7507h1.0887v3.1221c0 1.0323.2069 1.8078.6549 2.2799.3842.4123 1.0589.7176 1.8772.7176.7017 0 .9796-.105 1.2944-.2272v-1.7832c-.0646.0302-.2486.0666-.4876.0666-.8278 0-1.0197-.515-1.0197-1.4557v-2.7201h1.4815v-1.7507h-1.4815v-2.5638z"/><path clip-rule="evenodd" d="m33.6204 23.9319-1.4395 2.0698h1.6659l2.0306-2.0698z" fill-rule="evenodd"/></g></svg>