<svg fill="none" height="48" viewBox="0 0 48 48" width="48" xmlns="http://www.w3.org/2000/svg"><rect fill="#ec7000" height="48" rx="12" width="48"/><path d="m28.399 30.5806c-.0483-.1385-.119-.266-.2128-.3826-.0952-.1099-.213-.2131-.35-.3067-.1338-.0915-.2968-.1837-.4828-.2732l-.0129-.0064-.0044-.001c-.1505-.063-.2694-.1218-.3533-.1747-.0854-.0538-.1566-.106-.2116-.155-.0457-.0407-.0788-.0864-.0986-.1353-.0209-.0516-.0315-.1141-.0315-.1856 0-.0633.0113-.1193.0345-.1713.0244-.0549.0551-.103.0933-.1472.0479-.0469.1065-.0829.1794-.1098.0768-.0283.1627-.0428.2552-.0428.151 0 .2793.0223.3814.0658.1341.0577.2033.0945.238.1158l.1014.0738c.0312.0232.0706.0317.1089.0237l.0619-.0154.2656-.4766c.0344-.0614.0154-.1402-.043-.1793l-.0851-.0568c-.1191-.0819-.2504-.1456-.3904-.1895-.1141-.0358-.2361-.0595-.3668-.0711v-.2731c0-.0965-.0372-.1819-.1071-.2471-.0674-.0628-.1488-.0959-.2356-.0959-.0932 0-.1782.0331-.2452.0958-.0703.0651-.1073.1506-.1073.2472v.3106c-.1021.0332-.1993.0755-.29.1263-.1213.0678-.2289.1563-.3186.2614-.0987.1126-.1738.2393-.2232.377-.0492.1366-.0739.2813-.0739.4302 0 .1649.029.3187.0862.4566.0573.1382.1483.2661.267.3773.0894.0892.2005.1738.34.2582.133.0807.2907.1614.4845.2477.1202.0505.2242.1048.3095.1613.0804.0532.1482.1102.2016.1691.0441.0556.0775.1142.0989.1736.022.0611.0333.1252.0333.1903 0 .083-.0152.1598-.0453.2281-.0297.068-.071.1251-.1258.1749l-.0048.0044c-.0531.0531-.1205.0943-.2003.1221-.0827.0288-.1797.0437-.2881.0437-.1204 0-.245-.0218-.3703-.0644-.1247-.0425-.2336-.0974-.3237-.163l-.1033-.0846c-.031-.0251-.0713-.0354-.1108-.0281l-.0641.0145-.2663.4778c-.0333.0591-.0173.1343.037.1752l.0766.0573c.1191.0898.2717.1664.4534.2276.1402.0473.2811.0809.4209.1002v.3826c0 .0876.0357.1701.1033.2382.0674.0683.1534.1042.2488.1042.0876 0 .1699-.0357.2384-.1033.0681-.0674.1043-.1501.1043-.2391v-.4037c.3534-.0801.6107-.2504.7648-.5068.154-.2559.2319-.5178.2319-.7787 0-.1557-.0246-.3054-.0731-.4444z" fill="#fff"/><path d="m9.14424 6.00028h9.14356c1.2636 0 2.2861 1.02502 2.2861 2.28718v9.14464c0 1.2622-1.0225 2.2847-2.2861 2.2847h-9.14356c-1.26428 0-2.28682-1.0225-2.28682-2.2847v-9.14464c0-1.26216 1.02254-2.28718 2.28682-2.28718z" fill="#203f89"/><g fill="#f3e430"><path d="m8.00024 17.4307h1.06626v-4.5733h-1.06626z"/><path d="m14.4535 16.1652c0 .0545-.0051.1165-.0175.1726-.0016.0071-.0087.0311-.0106.0361-.0023.0058-.0046.0117-.0073.0173-.0945.2235-.3447.434-.6813.434-.2931 0-.4954-.1521-.4954-.4402 0-.3226.2754-.4888.6863-.5521.0961-.0152.2018-.0244.3151-.0287.0683-.0023.1383-.0032.2107-.0021zm-.6089-2.2624c-.6536 0-1.1415.1701-1.4064.3241l.2003.6737c.2405-.1451.6546-.2757 1.0286-.2757.6238-.0018.7556.3152.7556.4759v.0368c-1.3823-.0059-2.2362.4429-2.2362 1.329 0 .5216.4134 1.048 1.176 1.048.4545 0 .838-.1647 1.0707-.4403h.0115l.1166.3561h.8679v-2.027c0-.824-.4048-1.5006-1.5846-1.5006z"/><path d="m18.3742 14.0044v2.0088c0 .0809-.0101.1529-.036.2179-.0853.2061-.2957.4397-.6418.4397-.4354 0-.6262-.3199-.6262-.8551v-1.8134h-1.0409v2.004c0 .2683.0324.4962.097.6842.0646.1879.1525.3437.2644.4652.112.1227.2465.212.4028.2683.156.0563.3289.0848.5174.0848.1641 0 .3094-.0204.4361-.0604.1267-.0396.2361-.0879.3279-.1445.0919-.056.1688-.1172.231-.1832.0619-.0657.1107-.1246.1454-.1764l.134.4866h.8445v-3.4265z"/><path d="m10.067 12.8569v1.1445h-.48595v.7815h.48595v1.3937c0 .4608.0924.807.2924 1.0177.1715.1841.4727.3203.8379.3203.3133 0 .4373-.0468.5778-.1014v-.796c-.0288.0135-.1109.0298-.2176.0298-.3695 0-.4552-.2299-.4552-.6499v-1.2142h.6613v-.7815h-.6613v-1.1445z"/><path clip-rule="evenodd" d="m17.9814 12.8573-.6425.9239h.7436l.9064-.9239z" fill-rule="evenodd"/></g><path d="m31.842 38.0787c0 .3042.106.563.3172.7741.2111.2111.4698.3171.774.3171.3043 0 .563-.106.7741-.3171.2112-.2111.3172-.4699.3172-.7741s-.106-.5629-.3172-.7741c-.2111-.2111-.4698-.3171-.7741-.3171-.3042 0-.5629.106-.774.3171-.2112.2112-.3172.4699-.3172.7741z" fill="#fff"/><path d="m38.6632 21.7664c-.6567-.7627-1.6494-1.1519-2.656-1.1519h-6.3219c-.8035 0-1.5016.2549-2.0945.7644-.7625.6555-1.1533 1.3106-1.1533 2.3162v1.2512c.2267-.0296.4575-.0457.6934-.0457.2261 0 .447.015.664.0421v-.9261c0-.5794.2007-1.0694.6031-1.4718.4015-.4025.8841-.6032 1.4473-.6032h6.1756c.5629 0 1.0457.2007 1.4471.6032.4013.4024.6031.8924.6031 1.4718v14.5423h-.0064c-.0311.5028-.2285.939-.5967 1.3064-.4025.4014-.8842.6031-1.4471.6031h-6.1756c-.5632 0-1.0458-.2007-1.4473-.6031-.3672-.3683-.5654-.8038-.5968-1.3064h-.0063v-3.2825c-.2168.0271-.4379.0423-.664.0423-.2359 0-.4667-.0163-.6934-.0456v3.401c0 .8034.2548 1.5014.7645 2.0945.6553.7625 1.6462 1.1533 2.6518 1.1533h6.327c.8033 0 1.5016-.255 2.0945-.7647.7626-.6553 1.1531-1.6459 1.1531-2.6514v-14.9792c0-.804-.255-1.1677-.7652-1.7602z" fill="#fff"/><path d="m27.1287 25.9011c.581 0 1.1245.1108 1.6298.3322.5119.2213.9583.5225 1.3387.9029s.6816.8268.903 1.3387c.2213.512.3321 1.0589.3321 1.6399 0 .5811-.1108 1.1244-.3321 1.6297-.2214.512-.5226.9583-.903 1.3388s-.8268.6815-1.3387.9029c-.5053.2216-1.0482.3322-1.6298.3322-.5815 0-1.128-.1106-1.6398-.3322-.512-.2214-.9585-.5224-1.3388-.9029-.3805-.3805-.6815-.8268-.9031-1.3388-.2214-.5053-.332-1.0482-.332-1.6297 0-.5814.1106-1.1279.332-1.6399.2216-.5119.5226-.9583.9031-1.3387.3803-.3804.8268-.6816 1.3388-.9029.5118-.2214 1.0583-.3322 1.6398-.3322z" stroke="#fff" stroke-miterlimit="10"/></svg>