<svg xmlns="http://www.w3.org/2000/svg" fill="none" viewBox="0 0 32 32"><path fill="#EC7000" d="M21 14.5a7.32 7.32 0 0 0-2.21-5.29 7.33 7.33 0 0 0-5.3-2.2 7.27 7.27 0 0 0-5.3 2.2 7.32 7.32 0 0 0-2.2 5.3c0 1.03.2 2 .59 2.9a7.78 7.78 0 0 0 4 4.01c.91.4 1.88.59 2.91.59a7.32 7.32 0 0 0 5.3-2.2 7.27 7.27 0 0 0 1.62-2.4c.39-.9.58-1.87.58-2.9Zm-4.98 5.98a6.4 6.4 0 0 1-3.82.4 7.18 7.18 0 0 1-2.34-.98 6.67 6.67 0 0 1-2.74-4.1 7.06 7.06 0 0 1 0-2.58c.1-.44.22-.85.4-1.24A5.72 5.72 0 0 1 8.9 9.9c.3-.3.62-.57.96-.8a5.97 5.97 0 0 1 2.34-.98 5.92 5.92 0 0 1 2.58 0c.44.08.85.2 1.24.38a6.84 6.84 0 0 1 2.86 2.37 5.86 5.86 0 0 1 .99 2.34 5.93 5.93 0 0 1 0 2.58 5.97 5.97 0 0 1-.99 2.34 6.66 6.66 0 0 1-2.86 2.34Zm9.68 4.74-1.5 1.5a.95.95 0 0 1-.7.28.95.95 0 0 1-.7-.28l-4.97-4.9.42-.28.42-.28 4.83 4.73 1.5-1.5-4.76-4.83.3-.42.29-.42 4.87 4.97a1 1 0 0 1 0 1.43Z"/></svg>